# 3ds Max Wavefront OBJ Exporter v0.97b - (c)2007 guruware
# 创建的文件:23.07.2021 14:52:21

mtllib 2guizi_01.mtl

#
# object 2guizi_01
#

v  -296.7561 4.5000 16.2500
v  -296.7561 26.5000 16.2500
v  -290.7561 26.5000 16.2500
v  -290.7561 4.5000 16.2500
v  -296.7561 26.5000 22.2505
v  -296.7561 4.5000 22.2505
v  -290.7561 26.5000 22.2505
v  -290.7561 4.5000 22.2505
v  -296.7561 27.2062 21.9361
v  -290.7561 27.2062 21.9361
v  -290.7561 26.5000 21.9361
v  -296.7561 26.5000 21.9361
v  -296.7561 27.2062 22.2505
v  -290.7561 27.2062 22.2505
v  -296.7561 27.2062 16.2500
v  -290.7561 27.2062 16.2500
v  -296.7561 26.5000 16.5645
v  -296.7561 27.2062 16.5645
v  -290.7561 27.2062 16.5645
v  -290.7561 26.5000 16.5645
# 20 vertices

vn 0.0000 0.0000 -1.0000
vn -1.0000 0.0000 -0.0000
vn 0.0000 0.0000 1.0000
vn 1.0000 0.0000 -0.0000
vn 0.0000 -1.0000 -0.0000
vn 0.0000 1.0000 -0.0000
# 6 vertex normals

vt 0.9450 0.0323 1.0000
vt 0.9450 0.9430 1.0000
vt 0.6766 0.9430 1.0000
vt 0.6766 0.0323 1.0000
vt 0.2888 0.9413 0.0000
vt 0.0253 0.9413 0.0000
vt 0.0253 0.0325 0.0000
vt 0.2888 0.0325 0.0000
vt 0.2870 0.9369 0.0000
vt 0.0267 0.9369 0.0000
vt 0.0267 0.0293 0.0000
vt 0.2870 0.0293 0.0000
vt 0.2888 0.9413 1.0000
vt 0.0253 0.9413 1.0000
vt 0.0253 0.0325 1.0000
vt 0.2888 0.0325 1.0000
vt 0.2504 0.4200 0.0000
vt 0.2504 0.6039 0.0000
vt 0.0665 0.6039 0.0000
vt 0.0665 0.4200 0.0000
vt 0.2504 0.6039 1.0000
vt 0.0665 0.6039 1.0000
vt 0.0665 0.4200 1.0000
vt 0.2504 0.4200 1.0000
vt 0.9467 0.9683 1.0000
vt 0.6772 0.9683 1.0000
vt 0.6772 0.9436 1.0000
vt 0.9467 0.9436 1.0000
vt 0.0840 0.4331 0.0000
vt 0.2283 0.4331 0.0000
vt 0.2283 0.5774 0.0000
vt 0.0840 0.5774 0.0000
vt 0.2859 0.9622 0.0000
vt 0.0267 0.9622 0.0000
vt 0.2859 0.9369 0.0000
vt 0.2283 0.4331 1.0000
vt 0.2283 0.5774 1.0000
vt 0.0840 0.5774 1.0000
vt 0.0840 0.4331 1.0000
vt 0.6022 0.9622 0.0000
vt 0.3407 0.9622 0.0000
vt 0.3407 0.9373 0.0000
vt 0.6022 0.9373 0.0000
# 43 texture coords

g 2guizi_01
usemtl KK
s 1
f 1/1/1 2/2/1 3/3/1 4/4/1 
s 4
f 5/5/2 2/6/2 1/7/2 6/8/2 
usemtl KK_1
s 2
f 7/9/3 5/10/3 6/11/3 8/12/3 
usemtl KK
s 4
f 3/13/4 7/14/4 8/15/4 4/16/4 
s 16
f 6/17/5 1/18/5 4/19/5 8/20/5 
f 3/21/6 2/22/6 5/23/6 7/24/6 
s 1
f 9/25/1 10/26/1 11/27/1 12/28/1 
s 4
f 12/29/2 5/30/2 13/31/2 9/32/2 
usemtl KK_1
s 2
f 14/33/3 13/34/3 5/10/3 7/35/3 
usemtl KK
s 4
f 11/36/4 10/37/4 14/38/4 7/39/4 
s 16
f 9/38/6 13/39/6 14/36/6 10/37/6 
s 1
f 15/25/1 16/26/1 3/27/1 2/28/1 
s 4
f 2/29/2 17/30/2 18/31/2 15/32/2 
s 2
f 19/40/3 18/41/3 17/42/3 20/43/3 
s 4
f 20/39/4 3/36/4 16/37/4 19/38/4 
s 16
f 16/37/6 15/38/6 18/39/6 19/36/6 
# 16 polygons

